# xmcd CD database file
#
# Track frame offsets:
#	150
#	13883
#	26217
#	37469
#	51092
#	64616
#	78499
#	90608
#	100699
#	113363
#	123722
#	133849
#	145504
#	158366
#	169862
#	184445
#	194881
#	207331
#	218720
#	230253
#	243550
#	255434
#	267203
#	280357
#
# Disc length: 3939 seconds
#
# Revision: 0
# Processed by: cddbd v1.5.2PL0 Copyright (c) Steve Scherf et al.
# Submitted via: CDex 1.51
#
DISCID=620f6118
DTITLE=Verschiedene - The Roots of The Allmann Brothers Band
DYEAR=2000
DGENRE=Blues
TTITLE0=Big Bill Bronzy - Key To The Highway
TTITLE1=Blind Boy Fuller - Last Lover Blues
TTITLE2=Blind Willie Mc.Tell - Statesboro
TTITLE3=T-Bone Walker - Stormy Monday Blues
TTITLE4=B.B. King - Sweet Little Angel
TTITLE5=Howlin' Wolf - Smokestack Lightnin'
TTITLE6=Muddy Waters - Trouble No More
TTITLE7=Elmore James - Can't Stop Lovin'
TTITLE8=Otis Rush - It Takes Time
TTITLE9=Chuck Berry - Deep Feling
TTITLE10=Little Willie John - Need Your Love So Bad
TTITLE11=Chuck Wills - It's Too Late
TTITLE12=Louis Jordan - I'm Gonna Move To The Outskirts Of Town
TTITLE13=B.B. King - Did You Ever Love A Woman
TTITLE14=Elmore James - Wils About Your Baby
TTITLE15=Bo Didley - Mona
TTITLE16=Muddy Waters - Hoochie Coochie Man
TTITLE17=Bill Monroe and His Blue Gras Boys - Orange Blossom Special
TTITLE18=Bob Wills and The Texas Playboys - San Antonio Rose
TTITLE19=Bessie Smith - Nobody Knows You When You Are Down and Out
TTITLE20=Django Reinhardt - Tears
TTITLE21=Robert Johnson - Come On In My Kitchen (Take 2)
TTITLE22=Jimmie Rodgers - T.B. Blues
TTITLE23=Blind Willie Johnson - Dark Was The Night, Cold Was The Ground
EXTD=YEAR: 2000
EXTT0=
EXTT1=
EXTT2=
EXTT3=
EXTT4=
EXTT5=
EXTT6=
EXTT7=
EXTT8=
EXTT9=
EXTT10=
EXTT11=
EXTT12=
EXTT13=
EXTT14=
EXTT15=
EXTT16=
EXTT17=
EXTT18=
EXTT19=
EXTT20=
EXTT21=
EXTT22=
EXTT23=
PLAYORDER=
